# xmcd
#
# Track frame offsets:
#	150
#	26390
#	49127
#	79052
#	98379
#	116678
#	139330
#	155880
#	176209
#	196000
#	215687
#	230117
#	246310
#	269878
#	292095
#	309834
#
# Disc length: 4403 seconds
# Revision: 0
# Processed by: cddbd v1.5.2PL0 Copyright (c) Steve Scherf et al.
# Submitted via: dBpowerAMP V12.0
#
DISCID=f1113110
DTITLE=Various Artist - Deuces Wild (Fuji) [dBP-LITE-1-FLAC@]
DYEAR=1997
DGENRE=Blues
TTITLE0=B.B. King - If You Love Me
TTITLE1=Tracy Chapman and B.B. King - The Thrill Is Gone
TTITLE2=Eric Clapton and B.B. King - Rock Me Baby
TTITLE3=Mick Hucknail and B.B. King - Please Send Me Someone to Love
TTITLE4=Bonnie Raitt and B.B. King - Baby I Love You
TTITLE5=D'Angelo and B.B. King - Ain't Nobody Home
TTITLE6=Jools Holland and B.B. King - Pauly's Birthday Boogie
TTITLE7=Dr. John and B.B. King - There Must Be a Better World Somewhere
TTITLE8=Marty Stuart and B.B. King - Confessin' the Blues
TTITLE9=Dionne Warwick and B.B. King - Hummingbird
TTITLE10=Paul Carrack and B.B. King - Bring It Home to Me
TTITLE11=Roling Stones and B.B. King - Paying the Cost to Be the Boss
TTITLE12=Zucchero and B.B. King - Let the Good Times Roll
TTITLE13=Joe Cocker and B.B. King - Dangerous Mood
TTITLE14=B.B. King - Keep It Coming and B.B. King
TTITLE15=Paul Carrack and B.B. King - Crying Won't Help You
EXTD=
EXTT0=
EXTT1=
EXTT2=
EXTT3=
EXTT4=
EXTT5=
EXTT6=
EXTT7=
EXTT8=
EXTT9=
EXTT10=
EXTT11=
EXTT12=
EXTT13=
EXTT14=
EXTT15=
PLAYORDER=
